<?xml version="1.0" encoding="UTF-8"?>
<svg id="yda-logo" xmlns="http://www.w3.org/2000/svg" version="1.1" viewBox="0 0 457.11 81.67">
  <!-- Generator: Adobe Illustrator 29.0.1, SVG Export Plug-In . SVG Version: 2.1.0 Build 192)  -->
  <defs>
    <style>
      .st0 {
        fill: none;
      }

      .st1 {
        fill: #fff;
      }
    </style>
  </defs>
  <g>
    <g>
      <path class="st1" d="M82.54,62.87v2.68h-.69v-2.68l-1.93-3.81h.75l1.53,3.1,1.51-3.1h.75l-1.91,3.81Z"/>
      <path class="st1" d="M96.63,65.09c-.31.32-.74.51-1.28.51s-.97-.19-1.28-.51c-.46-.46-.55-1.09-.55-1.78s.09-1.33.55-1.78c.31-.32.74-.51,1.28-.51s.97.19,1.28.51c.45.45.55,1.09.55,1.78s-.09,1.32-.55,1.78ZM96.17,61.92c-.22-.22-.5-.33-.82-.33s-.59.11-.81.33c-.33.33-.36.87-.36,1.38s.03,1.05.36,1.38c.22.22.49.33.81.33s.6-.11.82-.33c.33-.34.35-.88.35-1.38s-.03-1.06-.35-1.38Z"/>
      <path class="st1" d="M109.94,65.55l-1.42-2.29-.87,1v1.29h-.66v-6.48h.66v4.33l2.02-2.33h.82l-1.52,1.71,1.78,2.77h-.81Z"/>
      <path class="st1" d="M123.16,65.09c-.31.32-.74.51-1.28.51s-.97-.19-1.28-.51c-.46-.46-.55-1.09-.55-1.78s.09-1.33.55-1.78c.31-.32.74-.51,1.28-.51s.97.19,1.28.51c.45.45.55,1.09.55,1.78s-.09,1.32-.55,1.78ZM122.69,61.92c-.22-.22-.5-.33-.82-.33s-.59.11-.81.33c-.33.33-.36.87-.36,1.38s.03,1.05.36,1.38c.22.22.49.33.81.33s.6-.11.82-.33c.33-.34.35-.88.35-1.38s-.03-1.06-.35-1.38Z"/>
      <path class="st1" d="M136.38,65.55v-2.77c0-.79-.41-1.18-1.09-1.18s-1.12.39-1.12,1.18v2.77h-.66v-6.48h.66v2.49c.33-.36.75-.55,1.26-.55,1.02,0,1.61.65,1.61,1.66v2.88h-.66Z"/>
      <path class="st1" d="M149.58,65.55v-.43c-.36.35-.69.48-1.29.48s-.96-.11-1.27-.41c-.23-.22-.34-.56-.34-.91,0-.79.56-1.29,1.56-1.29h1.34v-.43c0-.65-.32-.98-1.15-.98-.57,0-.86.15-1.13.52l-.45-.41c.39-.52.85-.67,1.58-.67,1.21,0,1.79.53,1.79,1.49v3.04h-.66ZM149.58,63.48h-1.25c-.67,0-1.01.26-1.01.79s.32.76,1.04.76c.37,0,.7-.04.99-.3.15-.15.23-.4.23-.77v-.48Z"/>
      <path class="st1" d="M166,65.55v-2.76c0-.79-.43-1.19-1.1-1.19s-1.12.41-1.12,1.12v2.83h-.65v-2.76c0-.79-.43-1.19-1.1-1.19s-1.12.41-1.12,1.19v2.76h-.66v-4.48h.66v.49c.32-.36.76-.55,1.26-.55.62,0,1.1.25,1.37.75.35-.49.85-.75,1.48-.75.48,0,.88.15,1.16.42.32.31.48.73.48,1.25v2.87h-.66Z"/>
      <path class="st1" d="M179.2,65.55v-.43c-.36.35-.69.48-1.29.48s-.96-.11-1.27-.41c-.23-.22-.34-.56-.34-.91,0-.79.56-1.29,1.56-1.29h1.34v-.43c0-.65-.32-.98-1.15-.98-.57,0-.86.15-1.13.52l-.45-.41c.39-.52.85-.67,1.58-.67,1.21,0,1.79.53,1.79,1.49v3.04h-.66ZM179.2,63.48h-1.25c-.67,0-1.01.26-1.01.79s.32.76,1.04.76c.37,0,.7-.04.99-.3.15-.15.23-.4.23-.77v-.48Z"/>
      <path class="st1" d="M207.31,64.86c-.44.47-.97.68-1.7.68h-2.22v-6.48h2.22c.73,0,1.27.21,1.7.68.57.62.57,1.57.57,2.56s0,1.94-.57,2.56ZM206.76,60.16c-.33-.36-.78-.47-1.27-.47h-1.41v5.24h1.41c.49,0,.95-.11,1.27-.47.42-.45.43-1.25.43-2.15s0-1.7-.43-2.15Z"/>
      <path class="st1" d="M217.77,59.79v-.74h.74v.74h-.74ZM217.81,65.55v-4.48h.66v4.48h-.66Z"/>
      <path class="st1" d="M229.95,67.6c-.67,0-1.05-.17-1.52-.6l.43-.42c.33.29.56.45,1.07.45.86,0,1.23-.61,1.23-1.37v-.7c-.36.46-.77.58-1.26.58-.46,0-.85-.16-1.08-.4-.45-.45-.55-1.14-.55-1.87s.1-1.42.55-1.87c.24-.24.64-.39,1.09-.39.49,0,.89.11,1.26.58v-.53h.65v4.62c0,1.11-.69,1.92-1.87,1.92ZM230.05,61.6c-.97,0-1.12.84-1.12,1.67s.15,1.67,1.12,1.67,1.11-.84,1.11-1.67-.14-1.67-1.11-1.67Z"/>
      <path class="st1" d="M241.83,59.79v-.74h.74v.74h-.74ZM241.86,65.55v-4.48h.66v4.48h-.66Z"/>
      <path class="st1" d="M253.82,65.55c-.76,0-1.15-.54-1.15-1.2v-2.78h-.56v-.5h.56v-1.37h.66v1.37h.96v.5h-.96v2.76c0,.41.19.66.61.66h.35v.56h-.46Z"/>
      <path class="st1" d="M266.53,65.55v-.43c-.36.35-.69.48-1.29.48s-.96-.11-1.27-.41c-.23-.22-.34-.56-.34-.91,0-.79.55-1.29,1.56-1.29h1.34v-.43c0-.65-.32-.98-1.15-.98-.57,0-.86.15-1.13.52l-.45-.41c.39-.52.85-.67,1.58-.67,1.21,0,1.79.53,1.79,1.49v3.04h-.66ZM266.53,63.48h-1.25c-.67,0-1.01.26-1.01.79s.32.76,1.04.76c.37,0,.7-.04.99-.3.15-.15.23-.4.23-.77v-.48Z"/>
      <path class="st1" d="M278.31,65.55c-.78,0-1.14-.51-1.14-1.19v-5.29h.66v5.26c0,.44.15.66.6.66h.35v.56h-.47Z"/>
      <path class="st1" d="M305.58,65.55l-.52-1.47h-2.83l-.52,1.47h-.74l2.38-6.48h.58l2.38,6.48h-.74ZM303.66,60.06l-1.22,3.42h2.42l-1.2-3.42Z"/>
      <path class="st1" d="M318.16,61.92c-.25-.25-.43-.33-.77-.33-.66,0-1.07.52-1.07,1.2v2.75h-.66v-4.48h.66v.55c.25-.37.74-.6,1.26-.6.43,0,.76.1,1.07.42l-.48.49Z"/>
      <path class="st1" d="M329.16,65.55c-.76,0-1.15-.54-1.15-1.2v-2.78h-.56v-.5h.56v-1.37h.66v1.37h.96v.5h-.96v2.76c0,.41.19.66.61.66h.35v.56h-.46Z"/>
      <path class="st1" d="M340.74,65.6c-.76,0-1.36-.17-1.84-.65l.44-.44c.35.36.84.52,1.39.52.75,0,1.19-.26,1.19-.79,0-.4-.22-.61-.75-.66l-.74-.06c-.87-.07-1.34-.46-1.34-1.2,0-.82.68-1.31,1.65-1.31.65,0,1.2.15,1.61.48l-.43.43c-.32-.25-.73-.35-1.19-.35-.66,0-1,.27-1,.74,0,.4.25.6.8.65l.7.06c.78.07,1.32.36,1.32,1.21s-.73,1.37-1.82,1.37Z"/>
      <path class="st1" d="M367.81,65.6c-.67,0-1.22-.24-1.62-.64-.61-.61-.65-1.17-.65-2.66s.04-2.05.65-2.66c.4-.4.95-.64,1.62-.64,1.17,0,2.02.72,2.25,1.93h-.71c-.17-.8-.73-1.31-1.54-1.31-.44,0-.82.15-1.12.45-.41.42-.45.89-.45,2.22s.05,1.8.45,2.22c.3.3.68.45,1.12.45.81,0,1.38-.51,1.56-1.31h.69c-.23,1.21-1.08,1.93-2.25,1.93Z"/>
      <path class="st1" d="M382.76,65.09c-.31.32-.74.51-1.28.51s-.97-.19-1.28-.51c-.46-.46-.55-1.09-.55-1.78s.09-1.33.55-1.78c.31-.32.74-.51,1.28-.51s.97.19,1.28.51c.45.45.55,1.09.55,1.78s-.09,1.32-.55,1.78ZM382.29,61.92c-.22-.22-.5-.33-.82-.33s-.59.11-.81.33c-.33.33-.36.87-.36,1.38s.03,1.05.36,1.38c.22.22.49.33.81.33s.6-.11.82-.33c.33-.34.35-.88.35-1.38s-.03-1.06-.35-1.38Z"/>
      <path class="st1" d="M394.23,65.55c-.78,0-1.14-.51-1.14-1.19v-5.29h.66v5.26c0,.44.15.66.6.66h.35v.56h-.47Z"/>
      <path class="st1" d="M405.32,65.55c-.78,0-1.14-.51-1.14-1.19v-5.29h.66v5.26c0,.44.15.66.6.66h.35v.56h-.47Z"/>
      <path class="st1" d="M415.69,63.48c0,.98.46,1.55,1.32,1.55.52,0,.82-.15,1.17-.51l.45.39c-.45.45-.88.69-1.64.69-1.19,0-1.96-.71-1.96-2.29,0-1.46.7-2.29,1.84-2.29s1.84.83,1.84,2.18v.29h-3.02ZM417.92,62.24c-.19-.41-.57-.67-1.05-.67s-.86.26-1.05.67c-.11.24-.12.38-.14.75h2.38c-.03-.36-.04-.51-.15-.75Z"/>
      <path class="st1" d="M429.96,67.6c-.67,0-1.05-.17-1.52-.6l.43-.42c.33.29.56.45,1.07.45.86,0,1.23-.61,1.23-1.37v-.7c-.36.46-.77.58-1.26.58-.46,0-.85-.16-1.08-.4-.45-.45-.55-1.14-.55-1.87s.1-1.42.55-1.87c.24-.24.64-.39,1.09-.39.49,0,.89.11,1.26.58v-.53h.65v4.62c0,1.11-.69,1.92-1.87,1.92ZM430.06,61.6c-.97,0-1.12.84-1.12,1.67s.15,1.67,1.12,1.67,1.11-.84,1.11-1.67-.14-1.67-1.11-1.67Z"/>
      <path class="st1" d="M442.28,63.48c0,.98.46,1.55,1.32,1.55.52,0,.82-.15,1.17-.51l.45.39c-.45.45-.88.69-1.64.69-1.19,0-1.96-.71-1.96-2.29,0-1.46.7-2.29,1.84-2.29s1.84.83,1.84,2.18v.29h-3.02ZM444.51,62.24c-.19-.41-.57-.67-1.05-.67s-.86.26-1.05.67c-.11.24-.12.38-.14.75h2.38c-.03-.36-.04-.51-.15-.75Z"/>
    </g>
    <g>
      <path class="st1" d="M77.86,42.65c1.74-2.33,3.05-5.32,3.6-8.17h-3.14v-3.31h3.26v-5.15h3.34v5.15h2.47v3.31h-2.47v.67c.79,2.18,2.21,4.22,3.52,5.52l-1.57,3.14c-.49-.67-1.25-1.6-1.95-3.17v12.88h-3.34v-11.05c-.93,2.76-1.92,4.27-2.56,5.2l-1.16-5.03ZM86.67,50.97c1.28-.32,3.26-.79,5.93-2.56h-3.92v-10.81h6.54v-1.45h-7.41v-2.88h3.75v-2.15h-3.02v-2.94h3.02v-2.15h3.2v2.15h4.16v-2.15h3.23v2.15h2.94v2.94h-2.94v2.15h3.63v2.88h-7.47v1.45h6.6v10.81h-4.3c1.95,1.28,2.99,1.77,5.52,2.59l-1.63,2.7c-2.06-.61-4.71-2.01-6.51-3.43l2.01-1.86h-6.92l2.01,1.8c-2.3,1.8-5,2.97-6.71,3.49l-1.69-2.73ZM91.81,40.1v1.69h3.4v-1.69h-3.4ZM91.81,44.08v1.72h3.4v-1.72h-3.4ZM94.75,31.11v2.15h4.16v-2.15h-4.16ZM101.73,41.78v-1.69h-3.43v1.69h3.43ZM101.73,45.79v-1.72h-3.43v1.72h3.43Z"/>
      <path class="st1" d="M114.85,43.24c-1.34,3.69-3.52,7.65-5.49,10.15l-2.41-3.26c2.73-3.2,4.54-7.41,5.03-8.69l2.88,1.74v-1.31h1.98v-14.56c7.62-.06,12.65-.52,15.9-1.42l1.19,3.23c-4.8,1.22-12.33,1.37-13.55,1.37v2.56h13.78v3.31h-3.78v5.52h4.36v3.46h-19.88v-2.09ZM108.77,33.7c1.05.38,3.43,1.34,5.17,2.91l-2.09,3.11c-1.51-1.28-2.76-2.03-4.8-3.02l1.71-2.99ZM109.76,26c1.8.67,3.14,1.42,5.12,2.88l-2.18,3.05c-1.19-1.08-2.56-2.06-4.88-3.05l1.95-2.88ZM122.38,47.1c-1.31,1.83-3.23,4.1-7.06,6.4l-2.41-2.79c2.38-1.22,4.94-3.02,6.63-5.32l2.85,1.72ZM120.37,36.35v5.52h6.48v-5.52h-6.48ZM132.61,53.44c-1.25-1.05-3.63-3.17-5.67-6.42l2.88-1.66c.61.81,2.41,3.31,5.35,5.32l-2.56,2.76Z"/>
      <path class="st1" d="M162.15,35.39v3.58h-9.36l-.06.76c-.73,9.62-6.6,11.57-12.3,12.7l-1.63-3.52c5.81-.81,9.62-2.15,9.91-9.22l.03-.73h-11.05v-3.58h24.45ZM157.39,27.97c.29,1.11.41,1.6.41,2.65v.84h-18.2v-3.49h17.79ZM158.61,30.59c-.15-1.34-.29-2.38-.84-4.39l2.24-.35c.55,1.92.7,2.41.96,4.33l-2.36.41ZM161.98,30.27c-.47-2.79-.73-3.66-1.02-4.48l2.18-.38c.52,1.45.73,2.35,1.1,4.42l-2.27.44Z"/>
      <path class="st1" d="M173.91,41.17c-3.23-1.8-7.18-3.02-8.23-3.34l1.42-3.37c3.58.93,5.81,1.8,8.4,3.11l-1.6,3.6ZM167.31,47.65c10.2-.9,15.7-3.43,19.59-15.7l3.63,1.74c-4.19,11.95-9.62,16.6-22.18,18.11l-1.05-4.16ZM176.38,34.34c-1.77-.9-4.36-2.06-8.4-3.17l1.54-3.37c4.91,1.28,7.3,2.38,8.49,2.96l-1.63,3.58ZM185.01,31.08c-.15-.73-.52-2.65-1.28-4.65l2.47-.44c.55,1.28.87,2.24,1.39,4.54l-2.59.55ZM189.26,30.44c-.12-.41-.58-2.5-1.42-4.33l2.41-.49c.81,1.69,1.37,3.72,1.48,4.24l-2.47.58Z"/>
      <path class="st1" d="M202.75,36.99c1.13.47,3.75,1.57,6.42,3.78,2.18-2.91,2.88-5.76,3.14-6.86h-9.36c-3.29,4.39-6.57,6.28-7.76,6.98l-2.53-2.85c5.12-2.7,7.79-6.19,9.8-11.37l4.16.67c-.41,1.05-.76,1.86-1.37,2.99h11.89c-1.08,6.77-4.42,18.46-20.52,22.24l-2.15-3.46c1.77-.29,6.74-1.1,11.92-5.44-2.76-2.33-5-3.43-6.28-4.04l2.65-2.65Z"/>
      <path class="st1" d="M228.34,35.42c0,3.37-.32,6.45-.93,9.27-.73,3.43-2.21,6.16-4.51,8.31l-3.14-2.73c1.6-1.54,4.62-4.45,4.62-14.27v-7.73h3.95v7.15ZM236.25,47.42c1.74-.67,3.6-1.6,5.17-4.16.67-1.1,1.83-3.2,2.36-6.54l3.6,1.54c-1.63,8.08-6.95,13.69-15,13.81v-24.71h3.87v20.06Z"/>
      <path class="st1" d="M275.01,28.09c-.99,6.98-4.21,10.55-8.66,13.02l-2.67-2.97c2.12-.99,4.77-2.5,6.22-6.39h-20.06v-3.66h25.17ZM250.53,49.34c5.49-2.15,8.84-5.26,8.81-15.2l4.16.06c-.23,8.26-2.36,14.42-10.46,18.2l-2.5-3.05Z"/>
      <path class="st1" d="M300.22,37.71v4.13h-22.15v-4.13h22.15Z"/>
      <path class="st1" d="M305.73,39.25c-.64-3.29-1.37-5.38-2.76-8.34l3.6-1.02c1.54,2.94,2.18,4.68,2.99,8.4l-3.84.96ZM305.93,48.85c7.15-1.34,15.2-4.48,17.47-19.94l4.24.81c-2.03,10.41-6.28,19.71-19.97,22.47l-1.74-3.34ZM313.58,37.74c-.7-3.84-1.13-5.44-2.53-8.46l3.81-.84c1.42,3.17,1.98,5.03,2.56,8.37l-3.84.93Z"/>
      <path class="st1" d="M336.29,46.43h-6.37v-3.02h18.55v-1.48h-16.34v-9.85h9.53v-1.34h-11.74v-2.99h11.74v-1.72h3.58v1.72h12.12v2.99h-12.12v1.34h9.65v9.85h-2.76v1.48h5.23v3.02h-5.23v4.56c0,1.66-1.19,2.56-2.7,2.56h-5.26l-.84-3.43h4.56c.55,0,.58-.2.58-.76v-2.94h-10.93c.84.64,2.65,2.24,4.1,4.3l-3.28,2.18c-1.25-1.8-2.96-3.6-4.51-4.85l2.44-1.63ZM335.56,34.48v1.45h6.1v-1.45h-6.1ZM335.56,38.03v1.48h6.1v-1.48h-6.1ZM345.24,34.48v1.45h6.16v-1.45h-6.16ZM345.24,38.03v1.48h6.16v-1.48h-6.16Z"/>
      <path class="st1" d="M360.02,26.98h11.31v11.8h-7.76v14.71h-3.55v-26.51ZM363.57,31.75h4.39v-1.74h-4.39v1.74ZM363.57,35.88h4.39v-1.89h-4.39v1.89ZM381.88,38.79h-8.08v-11.8h11.63v23.72c0,1.45-.87,2.79-2.85,2.79h-5.2l-.67-3.69h4.39c.67,0,.78-.06.78-.84v-10.17ZM377.14,31.75h4.74v-1.74h-4.74v1.74ZM377.14,35.88h4.74v-1.89h-4.74v1.89Z"/>
      <path class="st1" d="M410.76,35.68v2.85c-1.6,1.45-4.33,3.14-6.86,4.27h11.71v3.34h-12.01v4.42c0,1.42-.12,2.99-2.85,2.99h-5.64l-.61-3.6h4.24c1.02,0,1.13-.12,1.13-1.13v-2.67h-11.89v-3.34h11.89v-1.92l1.19.03c.32-.12,2.27-.79,3.6-1.98h-11.8v-3.26h17.88ZM392.21,30.56c-.58-1.31-.93-2.09-1.8-3.37l3.52-1.08c1.25,1.72,1.86,3.37,2.24,4.45h4.45c-.84-2.03-1.39-2.85-1.89-3.6l3.55-1.08c.87,1.42,1.51,2.67,2.12,4.68h3.23c.35-.64.84-1.57,1.86-4.56l3.9.99c-.67,1.54-1.05,2.3-1.77,3.58h3.29v6.89h-3.55v-3.66h-19.04v3.66h-3.57v-6.89h3.49Z"/>
      <path class="st1" d="M416.81,42.77c.81-1.13,2.38-3.23,3.6-8.23h-3.26v-3.31h3.63v-5.12h3.37v5.12h2.73v3.31h-2.73v1.74c1.31,2.41,2.99,4.16,3.93,5.12l-1.72,3.34c-.61-.84-1.42-1.92-2.21-3.26v11.95h-3.37v-11.8c-1.08,3.49-2.18,4.97-2.82,5.9l-1.16-4.77ZM441.84,39.75c-.49,1.4-1.48,4.16-3.75,6.89,1.34,1.08,3.2,2.27,7.06,3.31l-1.72,3.49c-1.66-.52-4.88-1.63-7.96-4.22-3.05,2.44-5.99,3.55-7.88,4.22l-1.83-3.31c1.69-.49,4.51-1.39,7.27-3.46-1.89-2.38-2.82-4.77-3.49-6.92l3.2-1.1c.44,1.31,1.19,3.4,2.88,5.52,1.19-1.48,2.09-3.11,2.91-5.61l3.31,1.19ZM434.31,33.99c-1.57,2.44-3.92,4.48-5.7,5.61l-2.24-2.67c1.1-.64,3.31-2.03,5.03-4.59l2.91,1.66ZM433.94,26.11h3.66v2.56h6.98v3.29h-17.33v-3.29h6.69v-2.56ZM440.1,32.3c2.09,2.5,4.1,3.75,5.06,4.36l-2.03,3.02c-1.63-1.05-3.55-2.41-5.96-5.7l2.94-1.69Z"/>
    </g>
    <g>
      <g>
        <path class="st1" d="M13.79,60.63c-.14-.33-.3-.61-.4-.76l.64-.22c.18.24.38.6.5.93l-.15.04h0s1.32.01,1.32.01c-.17-.36-.29-.57-.45-.8l.65-.24c.14.2.4.66.5.97l-.22.06h0s1.07.01,1.07.01c.08-.14.18-.33.44-1.02l.76.21c-.15.33-.24.49-.44.81h.84v1.42h-.67v-.83h-4.59v.83h-.67v-1.42h.86ZM17.92,61.68v.51c-.37.32-1.16.79-1.68.99v.05h2.78v.61h-2.78v1.11c0,.44-.46.51-.54.51h-1.29l-.13-.66h1.06c.19,0,.19-.09.19-.2v-.77h-2.77v-.61h2.77v-.48h.29c.24-.07.69-.25.98-.49h-2.94v-.58h4.07Z"/>
        <path class="st1" d="M19.31,63.21c.56-.75.81-1.58.89-1.83h-.83v-.6h.92v-1.15h.63v1.15h.7v.6h-.7v.36c.29.53.69.92.92,1.15l-.34.6c-.3-.35-.38-.49-.56-.85h-.01v2.8h-.63v-2.86h-.01c-.24.78-.52,1.19-.71,1.47l-.25-.84ZM23.26,59.64h.67v.6h1.66v.59h-3.93v-.59h1.6v-.6ZM24.96,62.47c-.12.3-.35.9-.93,1.57.63.48,1.26.67,1.7.78l-.33.62c-.38-.12-1.14-.35-1.86-.94-.6.48-1.25.74-1.81.94l-.35-.58c.44-.14,1.1-.35,1.7-.81-.54-.62-.75-1.23-.87-1.59l.61-.17c.09.24.26.76.74,1.31.34-.4.57-.81.76-1.33l.64.2ZM24.52,60.95c.41.46.72.69,1.2.97l-.44.52c-.38-.23-.81-.51-1.32-1.18l.55-.3ZM23.22,61.25c-.3.45-.74.87-1.25,1.18l-.47-.46c.71-.38,1-.76,1.16-1l.56.28Z"/>
        <path class="st1" d="M29.77,62.75c-.3.87-.83,1.74-.91,1.88.9-.02,1.3-.04,2.13-.13-.15-.24-.3-.48-.69-.96l.6-.32c.6.65,1.04,1.44,1.29,1.98l-.68.3c-.09-.19-.15-.32-.24-.48-.95.15-2.89.25-3.57.27l-.09-.61c.09,0,.44-.01.5-.01.44-.75.67-1.25.86-1.9h-1.26v-.6h1.92v-1.04h-1.65v-.6h1.65v-.87h.67v.87h1.65v.6h-1.65v1.04h1.9v.6h-2.42ZM26.58,59.64c.27.11.89.43,1.12.6l-.43.58c-.32-.24-.4-.28-1.07-.65l.38-.53ZM26.27,61.34c.52.22.82.39,1.16.59l-.42.58c-.36-.26-.73-.45-1.08-.6l.34-.56ZM27.66,63.29c-.24.5-.78,1.48-1.32,2.11l-.45-.63c.3-.32.58-.65,1.2-1.88l.56.4Z"/>
        <path class="st1" d="M35.32,59.65h.77v.76c0,1.25.43,3.23,2.79,4.38l-.46.63c-1.22-.58-2.27-1.74-2.72-3.3h-.01c-.4,1.49-1.39,2.66-2.71,3.3l-.49-.62c.97-.44,1.77-1.15,2.24-2.06.36-.68.58-1.54.58-2.31v-.79Z"/>
        <path class="st1" d="M47.56,63.54v1.03h-3.1v-1.03h3.1ZM43.8,65.45h.66v-.28h3.1v.28h.69v-2.49h-3.57c.26-.35.37-.55.46-.72h3.57v-.59h-6.16v.59h1.81c-.54.99-1.45,1.49-1.9,1.71l.38.58c.24-.13.52-.29.96-.66v1.58ZM42.94,59.79v1.38h5.4v-1.38h-.68v.79h-1.69v-.96h-.67v.96h-1.7v-.79h-.66Z"/>
        <path class="st1" d="M53.35,63.46v.66h-.77v-.66h.77ZM54.37,62.66v1.91c0,.16,0,.27-.23.27h-.64l.1.61h.85c.56,0,.56-.31.56-.52v-2.27h.32v-.56h-3.77v-1.61h-.54v3.61h-.34v-4.49h-.56v4.49h-.34v-3.61h-.55v4.62h.55v-.41h1.77v-2.03h2.8ZM53.08,59.61c0,.18,0,.33-.04.53h-1.26v.56h1.08c-.27.47-.91.67-1.16.76l.33.59c.36-.15,1.07-.45,1.47-1.26.19.35.68.94,1.57,1.26l.27-.59c-.62-.17-.93-.38-1.28-.76h1.17v-.56h-1.53c.04-.19.05-.33.06-.53h-.69ZM51.99,62.96v1.69h1.95v-1.69h-1.95Z"/>
        <path class="st1" d="M56.76,60.63c-.14-.33-.3-.61-.4-.76l.64-.22c.18.24.38.6.5.93l-.15.04h0s1.32.01,1.32.01c-.17-.36-.29-.57-.45-.8l.65-.24c.14.2.4.66.5.97l-.22.06h0s1.07.01,1.07.01c.08-.14.18-.33.44-1.02l.76.21c-.15.33-.24.49-.44.81h.84v1.42h-.67v-.83h-4.59v.83h-.67v-1.42h.86ZM60.89,61.68v.51c-.37.32-1.16.79-1.69.99v.05h2.78v.61h-2.78v1.11c0,.44-.46.51-.54.51h-1.29l-.13-.66h1.06c.18,0,.18-.09.18-.2v-.77h-2.77v-.61h2.77v-.48h.29c.24-.07.69-.25.98-.49h-2.94v-.58h4.07Z"/>
        <path class="st1" d="M66.53,62.36v.35h-2.25v-.35h2.25ZM67.12,63.13h0s.01-.01.01-.01v-1.16h-3.46v1.16h1.18c-.31.25-.75.54-1.42.74l.24.5c.67-.21,1.13-.56,1.36-.76v.91h.59v-.85c.09.08.69.61,1.47.85l.32-.47c-.22-.07-.42-.14-.67-.25.16-.12.4-.33.6-.55l-.23-.12ZM66.76,63.12c-.14.15-.32.32-.47.44-.13-.08-.29-.19-.58-.44h1.05ZM62.58,59.84v5.61h.65v-.25h4.39v.25h.64v-5.61h-5.68ZM65.72,60.38h1.9v4.28h-4.39v-4.28h1.88v.32h-1.4v.39h1.4v.25h-1.64v.4h3.9v-.4h-1.64v-.25h1.42v-.39h-1.42v-.32Z"/>
      </g>
      <g>
        <path class="st1" d="M40.53,53.19h-23.32v-14.13l4.24-4.04,6.4,5.89c3.7,2.96,6.94-.48,6.53-3.17-.41-2.69,1.07-7.4,6.15-7.4s6.56,4.71,6.16,7.4c-.4,2.7,2.83,6.13,6.53,3.17l6.39-5.89,4.25,4.04v14.13h-23.45l.03,4.45h27.86v-21.01l-8.75-8.45-8.21,7.88c-.47-5.04-4.55-9.93-10.81-9.93s-10.33,4.89-10.81,9.93l-8.21-7.88-8.76,8.45v21.01h27.78v-4.45Z"/>
        <path class="st1" d="M40.55,39.85c2.02,0,3.65-1.63,3.65-3.64s-1.63-3.65-3.65-3.65-3.64,1.63-3.64,3.65,1.63,3.64,3.64,3.64Z"/>
      </g>
      <g>
        <path class="st1" d="M28.16,51.59l-1.11-2.8h-.84s0,0,0,0l-.77,2.57-.38.34h.85l-.27-.31.2-.66h.69l.34.85h-.25v.12h1.77v-.12h-.23ZM25.87,50.61l.28-.93.37.93h-.65Z"/>
        <path class="st1" d="M34.14,51.59l-1.11-2.8h-.85s-.76,2.58-.76,2.58l-.39.34h.85l-.3-.31.2-.66h.73l.33.85h-.35v.12h1.87v-.12h-.23ZM31.81,50.61l.28-.93.37.93h-.65Z"/>
        <path class="st1" d="M48.41,51.59l-1.12-2.8h-.84s0,0,0,0l-.77,2.57-.39.34h.86l-.3-.31.2-.66h.73l.34.85h-.25v.12h1.77v-.12h-.23ZM46.08,50.61l.28-.93.37.93h-.65Z"/>
        <path class="st1" d="M30.83,49.81v-1.01l-.47.26c-.29-.18-.75-.49-1.37-.11-.52.32-.5,1.06-.17,1.4.47.48,1.78.89,1.24,1.21-.4.16-.87-.09-1.34-.84v1l.42-.23c.29.23.91.49,1.51.02.6-.46.48-1.24-.18-1.59-1.01-.53-1.15-.92-.87-.99.18-.05.76.19,1.23.88Z"/>
        <polygon class="st1" points="20.57 48.93 20.57 48.8 20.32 48.8 19.08 48.8 18.82 48.8 18.82 48.93 19.08 48.93 19.08 51.59 18.82 51.59 18.82 51.71 19.08 51.71 20.32 51.71 20.57 51.71 20.57 51.59 20.32 51.59 20.32 48.93 20.57 48.93"/>
        <polygon class="st1" points="40.39 48.93 40.39 48.8 40.14 48.8 38.88 48.8 38.63 48.8 38.63 48.93 38.88 48.93 38.88 51.59 38.63 51.59 38.63 51.71 38.88 51.71 40.14 51.71 40.39 51.71 40.39 51.59 40.14 51.59 40.14 48.93 40.39 48.93"/>
        <polygon class="st1" points="24.81 48.8 25.05 49.2 24.69 50.23 24.19 48.93 24.34 48.93 24.34 48.8 24.14 48.8 22.85 48.8 22.7 48.8 22.7 48.93 22.9 48.93 23.27 49.91 22.97 50.55 22.35 48.93 22.49 48.93 22.49 48.8 22.3 48.8 21.04 48.8 20.89 48.8 20.89 48.93 21.1 48.93 22.19 51.71 22.62 51.71 23.36 50.13 23.99 51.71 24.37 51.71 25.25 49.19 25.66 48.8 24.81 48.8"/>
        <polygon class="st1" points="38.06 51.58 36.92 49.51 37.14 49.26 37.78 48.8 36.66 48.8 36.94 49.25 36.13 50.11 36.13 48.94 36.33 48.94 36.33 48.81 36.13 48.81 36.13 48.8 34.82 48.8 34.82 48.81 34.61 48.81 34.61 48.94 34.82 48.94 34.82 51.58 34.61 51.58 34.61 51.71 34.82 51.71 36.13 51.71 36.33 51.71 36.33 51.58 36.13 51.58 36.13 50.45 36.77 51.58 36.54 51.58 36.54 51.71 36.84 51.71 38.13 51.71 38.25 51.71 38.25 51.58 38.06 51.58"/>
        <polygon class="st1" points="52.47 51.58 51.31 49.51 51.55 49.26 52.2 48.8 51.06 48.8 51.34 49.25 50.53 50.11 50.53 48.94 50.74 48.94 50.74 48.81 50.53 48.81 50.53 48.8 49.23 48.8 49.23 48.81 49.02 48.81 49.02 48.94 49.23 48.94 49.23 51.58 49.02 51.58 49.02 51.71 49.23 51.71 50.53 51.71 50.74 51.71 50.74 51.58 50.53 51.58 50.53 50.45 51.18 51.58 50.94 51.58 50.94 51.71 51.25 51.71 52.54 51.71 52.66 51.71 52.66 51.58 52.47 51.58"/>
        <path class="st1" d="M45.11,50.26h-.16s-1.2-.01-1.2-.01h0s-.16.01-.16.01v.1h.16c0,.22,0,.73,0,.99,0,.34-.42.35-.42-.04v-2.07c0-.65,1.13-.27,1.55.44v-.89l-.45.25c-.24-.15-.59-.26-.85-.26-.83,0-1.51.66-1.51,1.48s.68,1.5,1.51,1.5c.34-.03.32-.18.55-.31.23-.14.55-.08.81.28v-1.35h.16v-.1Z"/>
        <path class="st1" d="M54.98,48.8l.42.55v1.39c0,.45-.24.81-.66.81-.43,0-.5-.48-.51-.78v-1.85h.21v-.12h-1.62v.12h.21v1.75c0,.63.3,1.04,1.44,1.04.91,0,1.06-.62,1.06-.98v-1.39l.39-.55h-.92Z"/>
        <polygon class="st1" points="57.96 51.6 57.71 51.6 57.71 50.14 57.94 50.14 58.47 50.72 58.47 49.5 57.94 50 57.71 50 57.71 48.9 58.19 48.9 58.95 49.65 58.95 48.8 57.71 48.8 56.44 48.8 56.27 48.8 56.27 48.9 56.44 48.9 56.44 51.6 56.23 51.6 56.23 51.71 56.44 51.71 57.71 51.71 59.07 51.71 59.07 50.31 57.96 51.6"/>
        <polygon class="st1" points="62.25 51.71 62.25 49.18 62.58 48.8 61.72 48.8 62.08 49.18 62.07 50.2 61.02 48.8 59.56 48.8 59.56 48.94 59.79 48.94 59.79 51.28 59.4 51.71 60.41 51.71 59.98 51.27 59.98 49.26 61.68 51.71 62.25 51.71"/>
      </g>
    </g>
  </g>
  <line class="st0" x1="229.03" y1="11.35" x2="229.03" y2="81.67"/>
</svg>